<?xml version="1.0" encoding="utf-8"?>
<!-- Generator: Adobe Illustrator 22.0.1, SVG Export Plug-In . SVG Version: 6.00 Build 0)  -->
<svg version="1.1" id="Capa_1" xmlns="http://www.w3.org/2000/svg" xmlns:xlink="http://www.w3.org/1999/xlink" x="0px" y="0px"
	 viewBox="0 0 90 90" style="enable-background:new 0 0 90 90;" xml:space="preserve">
<path d="M58.7,2.2C40-4,19.4,3.5,8.1,19.3C-3.4,35.1-2.4,57.5,9.5,72.8c12,15.3,33.1,21.2,51.3,14.4C78.3,80.6,89.9,63.6,90,45
	C89.9,25.5,77.2,8.3,58.7,2.2z M51.6,83.2c-18.3,3.4-36.9-7.7-43.1-25C2.1,40.4,9.8,20.5,26,11.2c16.5-9.4,37.4-4.7,49.2,9.7
	c5.5,6.7,8.4,15.5,8.4,24.2C83.6,63.8,70,79.8,51.6,83.2z M67.8,34.4c-1.4,1.4-2.8,2.8-4.2,4.2C57.3,44.9,51,51.2,44.7,57.5
	c-1.5,1.5-3.1,3.1-4.6,4.6c-0.4,0.4-0.8,0.6-1.2,0.8c-2.8,1.3-5.3-2.1-7.1-3.9c-3-3-6.1-6.1-9.1-9.1c-1.2-1.2-2.8-2.7-2-4.6
	c1.2-2.8,4.2-3.5,6.4-1.3c2.8,2.8,5.6,5.6,8.4,8.4c0.7,0.7,1.4,1.4,2.1,2.1c5.1-5,10.1-10.1,15.2-15.1c2.8-2.8,5.6-5.6,8.4-8.4
	c1.9-1.9,4.3-5.1,7.3-2.9c0.1,0.1,0.3,0.2,0.4,0.4c0.1,0.1,0.3,0.3,0.4,0.4C70.7,30.9,69.3,32.9,67.8,34.4z"/>
</svg>
