<?xml version="1.0" encoding="utf-8"?>
<!-- Generator: Adobe Illustrator 22.0.1, SVG Export Plug-In . SVG Version: 6.00 Build 0)  -->
<svg version="1.1" id="Capa_1" xmlns="http://www.w3.org/2000/svg" xmlns:xlink="http://www.w3.org/1999/xlink" x="0px" y="0px"
	 viewBox="0 0 38 48" style="enable-background:new 0 0 38 48;" xml:space="preserve">
<path d="M38,15V5c0-2.8-2.2-5-5-5H5C2.2,0,0,2.2,0,5v38c0,2.8,2.2,5,5,5h28c2.8,0,5-2.2,5-5V19c0-0.6-0.4-1-1-1s-1,0.4-1,1v24
	c0,1.7-1.3,3-3,3H5c-1.7,0-3-1.3-3-3V5c0-1.7,1.3-3,3-3h28c1.7,0,3,1.3,3,3v9H7V7h24v4c0,0.6,0.4,1,1,1s1-0.4,1-1V6c0-0.6-0.4-1-1-1
	H6C5.4,5,5,5.4,5,6v9c0,0.6,0.4,1,1,1h31C37.6,16,38,15.6,38,15z"/>
<path d="M13,21c0-1.1-0.9-2-2-2H9c-1.1,0-2,0.9-2,2v2c0,1.1,0.9,2,2,2h2c1.1,0,2-0.9,2-2V21z M11,23H9v-2h2V23z"/>
<path d="M22,21c0-1.1-0.9-2-2-2h-2c-1.1,0-2,0.9-2,2v2c0,1.1,0.9,2,2,2h2c1.1,0,2-0.9,2-2V21z M20,23h-2v-2h2V23z"/>
<path d="M31,21c0-1.1-0.9-2-2-2h-2c-1.1,0-2,0.9-2,2v2c0,1.1,0.9,2,2,2h2c1.1,0,2-0.9,2-2V21z M29,23h-2v-2h2V23z"/>
<path d="M13,30c0-1.1-0.9-2-2-2H9c-1.1,0-2,0.9-2,2v2c0,1.1,0.9,2,2,2h2c1.1,0,2-0.9,2-2V30z M11,32H9v-2h2V32z"/>
<path d="M22,30c0-1.1-0.9-2-2-2h-2c-1.1,0-2,0.9-2,2v2c0,1.1,0.9,2,2,2h2c1.1,0,2-0.9,2-2V30z M20,32h-2v-2h2V32z"/>
<path d="M31,30c0-1.1-0.9-2-2-2h-2c-1.1,0-2,0.9-2,2v2c0,1.1,0.9,2,2,2h2c1.1,0,2-0.9,2-2V30z M29,32h-2v-2h2V32z"/>
<path d="M11,37H9c-1.1,0-2,0.9-2,2v2c0,1.1,0.9,2,2,2h2c1.1,0,2-0.9,2-2v-2C13,37.9,12.1,37,11,37z M11,41H9v-2h2V41z"/>
<path d="M20,37h-2c-1.1,0-2,0.9-2,2v2c0,1.1,0.9,2,2,2h2c1.1,0,2-0.9,2-2v-2C22,37.9,21.1,37,20,37z M20,41h-2v-2h2V41z"/>
<path d="M29,37h-2c-1.1,0-2,0.9-2,2v2c0,1.1,0.9,2,2,2h2c1.1,0,2-0.9,2-2v-2C31,37.9,30.1,37,29,37z M29,41h-2v-2h2V41z"/>
</svg>
