<?xml version="1.0" encoding="utf-8"?>
<!-- Generator: Adobe Illustrator 22.0.1, SVG Export Plug-In . SVG Version: 6.00 Build 0)  -->
<svg version="1.1" id="Capa_1" xmlns="http://www.w3.org/2000/svg" xmlns:xlink="http://www.w3.org/1999/xlink" x="0px" y="0px"
	 viewBox="0 0 70 69.9" style="enable-background:new 0 0 70 69.9;" xml:space="preserve">
<path d="M57,0H13C5.8,0,0,5.8,0,13v43.9c0,7.2,5.8,13,13,13h44c7.2,0,13-5.8,13-13V13C70,5.8,64.2,0,57,0z M57,64.6h-8.8
	c0-5.5,0-11,0-16.5c5.5,0,11,0,16.5,0v8.8C64.6,61.1,61.2,64.6,57,64.6z M5.4,56.9v-8.8c5.5,0,11,0,16.5,0c0,5.5,0,11,0,16.5H13
	C8.8,64.6,5.4,61.1,5.4,56.9z M13,5.3h44c4.2,0,7.6,3.4,7.6,7.6v8.8c-19.7,0-39.5,0-59.2,0v-8.8C5.4,8.8,8.8,5.3,13,5.3z M27.2,64.6
	c0-5.5,0-11,0-16.5c5.2,0,10.4,0,15.5,0c0,5.5,0,11,0,16.5H27.2z M27.2,42.7c0-5.2,0-10.4,0-15.5c5.2,0,10.4,0,15.5,0
	c0,5.2,0,10.4,0,15.5C37.6,42.7,32.4,42.7,27.2,42.7z M21.8,27.2c0,5.2,0,10.4,0,15.5c-5.5,0-11,0-16.5,0V27.2
	C10.9,27.2,16.4,27.2,21.8,27.2z M48.2,42.7c0-5.2,0-10.4,0-15.5c5.5,0,11,0,16.5,0v15.5C59.1,42.7,53.6,42.7,48.2,42.7z M48.1,11.2
	c3.5,0,3.5,5.4,0,5.4c-8.7,0-17.5,0-26.2,0c-3.5,0-3.5-5.4,0-5.4C30.6,11.2,39.4,11.2,48.1,11.2L48.1,11.2z"/>
</svg>
