<?xml version="1.0" encoding="utf-8"?>
<!-- Generator: Adobe Illustrator 22.0.1, SVG Export Plug-In . SVG Version: 6.00 Build 0)  -->
<svg version="1.1" id="Capa_1" xmlns="http://www.w3.org/2000/svg" xmlns:xlink="http://www.w3.org/1999/xlink" x="0px" y="0px"
	 viewBox="0 0 97.2 97" style="enable-background:new 0 0 97.2 97;" xml:space="preserve">
<path d="M73.9,95.3c1.4,0,2.5-1.1,2.5-2.5s-1.1-2.5-2.5-2.5H5v-5.9c0-5.2,3.3-9.9,8.2-11.8l18.5-7c3,4.8,8.3,7.8,14,7.7l0,0
	c5.7,0.1,11-2.8,14-7.7l10.1,3.8c1.3,0.5,2.7-0.2,3.2-1.5s-0.2-2.7-1.5-3.2l-10.5-4c0-0.1-0.1-0.1-0.1-0.2v-5.2
	c2.6-3.6,4.2-7.8,4.8-12.2c3.1-2.7,4.9-6.6,4.9-10.7c0-1.9-0.7-3.7-2.1-5c-0.7-0.7-1.6-1.3-2.5-1.6v-3.8c0-2.9-0.9-5.7-2.5-8.1
	c-2.8-3.9-6.8-6.8-11.4-8V2.5C52.1,1.1,51,0,49.6,0h-4.4c-8.9,0-15.7,7-18.4,13.5c-0.9,2.3-1.4,4.7-1.4,7.2l-0.1,5
	c-1,0.3-1.9,0.9-2.6,1.6c-1.4,1.3-2.2,3.2-2.1,5.1c0,4.2,1.9,8.2,5.1,10.8c0.6,4.3,2.2,8.3,4.6,11.9v5.5c0,0.1-0.1,0.1-0.1,0.2
	l-18.9,7.1C4.6,70.5,0,77.1,0,84.4v8.4c0,1.4,1.1,2.5,2.5,2.5l0,0L73.9,95.3z M29.5,39.9c-2.4-1.7-3.8-4.5-3.9-7.4
	c0-0.6,0.2-1.1,0.6-1.5c0.4-0.4,1-0.6,1.6-0.6c1.4,0.1,2.5-1,2.6-2.4c0,0,0,0,0-0.1l0.1-7.1c0-1.8,0.3-3.7,1-5.4
	c2-5,7.2-10.4,13.8-10.4h1.8v3.1c0,1.3,1,2.4,2.2,2.5c4.1,0.6,7.8,2.9,10.1,6.4c1.1,1.5,1.6,3.3,1.6,5.1v5.8c0,1.4,1.1,2.5,2.5,2.5
	l0,0c0.6,0,1.1,0.2,1.5,0.6c0.4,0.4,0.6,0.9,0.6,1.5c0,2.9-1.4,5.6-3.8,7.3c-0.6,0.4-0.9,1-1,1.7c-0.4,4-1.8,7.7-4.1,11
	c-0.6,0.7-0.9,1.6-0.9,2.6V62c-1.9,3.9-5.9,6.3-10.3,6.3l0,0c-4.3,0-8.3-2.4-10.3-6.3v-7.1c0-0.9-0.3-1.8-0.8-2.5
	c-2.2-3.2-3.6-6.9-4-10.7C30.4,41,30.1,40.3,29.5,39.9z"/>
<path d="M87.8,73.9L87.8,73.9c-5.7-1.3-5.7-3.7-5.7-4.5c0-3.1,2.6-4.4,5.1-4.4c2,0,3.9,1.2,4.7,3.1c0.5,1.3,1.9,1.9,3.2,1.4
	c1.3-0.5,1.9-1.9,1.4-3.2c0,0,0-0.1-0.1-0.1c-1.2-2.9-3.8-5.1-6.8-5.9v-2.1c0-1.4-1.1-2.5-2.5-2.5s-2.5,1.1-2.5,2.5v2.1
	C80.2,61,77,64.9,77,69.3c0,2.7,1.2,7.5,9.4,9.4h0.1c5.6,1.3,5.6,3.7,5.6,4.5c0,3.1-2.6,4.4-5.1,4.4c-2,0-3.9-1.2-4.7-3.1
	c-0.7-1.2-2.2-1.6-3.4-0.9c-1,0.6-1.5,1.8-1.2,2.9c1.2,2.9,3.7,5.1,6.8,5.9v2.1c0,1.4,1.1,2.5,2.5,2.5s2.5-1.1,2.5-2.5v-2.1
	c4.4-0.8,7.6-4.7,7.6-9.2C97.2,80.6,96,75.8,87.8,73.9z"/>
</svg>
