<?xml version="1.0" encoding="utf-8"?>
<!-- Generator: Adobe Illustrator 22.0.1, SVG Export Plug-In . SVG Version: 6.00 Build 0)  -->
<svg version="1.1" id="Capa_1" xmlns="http://www.w3.org/2000/svg" xmlns:xlink="http://www.w3.org/1999/xlink" x="0px" y="0px"
	 viewBox="0 0 69.2 83" style="enable-background:new 0 0 69.2 83;" xml:space="preserve">
<path d="M69.2,20.7c0-0.1,0-0.1,0-0.2c0-0.5-0.1-1-0.3-1.5c0-0.1,0-0.1-0.1-0.2c-0.2-0.5-0.4-1-0.8-1.4l-0.1-0.1
	c-0.2-0.2-0.3-0.4-0.5-0.6L52.6,1.8C51.5,0.7,49.9,0,48.4,0H21.6c-3.3,0-6,2.7-6,6v9.5H6c-3.3,0-6,2.7-6,6V77c0,3.3,2.7,6,6,6h41.6
	c3.3,0,6-2.7,6-6v-9.5h9.6c3.3,0,6-2.7,6-6V20.9C69.2,20.9,69.2,20.8,69.2,20.7z M47.6,77H6V21.5h9.6v40c0,3.3,2.7,6,6,6h26V77z
	 M63.2,61.5h-9.6h-6h-26v-40v-6V6h20.8v0.1V21c0,2.5,1.6,4.7,3.8,5.6c0.7,0.3,1.4,0.4,2.2,0.4h14.9L63.2,61.5L63.2,61.5z M48.4,20.9
	V6.1L63.3,21L48.4,20.9L48.4,20.9z"/>
</svg>
