<?xml version="1.0" encoding="utf-8"?>
<!-- Generator: Adobe Illustrator 22.0.1, SVG Export Plug-In . SVG Version: 6.00 Build 0)  -->
<svg version="1.1" id="Capa_1" xmlns="http://www.w3.org/2000/svg" xmlns:xlink="http://www.w3.org/1999/xlink" x="0px" y="0px"
	 viewBox="0 0 55 70" style="enable-background:new 0 0 55 70;" xml:space="preserve">
<path d="M47,19.4l-1.8,44c0,0.9-0.8,1.6-1.7,1.6h-32c-0.9,0-1.6-0.7-1.7-1.6L8,19.4C7.9,18,6.8,16.9,5.4,17S2.9,18.2,3,19.6l1.8,44
	C5,67.2,8,70,11.5,70h32c3.5,0,6.5-2.8,6.7-6.4l1.8-44c0.1-1.4-1-2.5-2.4-2.6C48.2,16.9,47.1,18,47,19.4z"/>
<path d="M25.5,23.5v34c0,1.1,0.9,2,2,2s2-0.9,2-2v-34c0-1.1-0.9-2-2-2S25.5,22.4,25.5,23.5z"/>
<path d="M14.5,23.6l1,34c0,1.1,1,2,2.1,1.9c1.1,0,2-1,1.9-2.1l-1-34c0-1.1-1-2-2.1-1.9C15.3,21.5,14.5,22.5,14.5,23.6z"/>
<path d="M36.5,23.4l-1,34c0,1.1,0.8,2,1.9,2.1c1.1,0,2-0.8,2.1-1.9l1-34c0-1.1-0.8-2-1.9-2.1C37.5,21.5,36.5,22.3,36.5,23.4z"/>
<path d="M52.5,8.5H39.8l-1-3.3C38,2.2,35.1,0,32,0h-9c-3,0-6,2.2-6.9,5.2l-1,3.3H2.5C1.1,8.5,0,9.6,0,11c0,1.4,1.1,2.5,2.5,2.5h50
	c1.4,0,2.5-1.1,2.5-2.5C55,9.6,53.9,8.5,52.5,8.5z M20.9,6.5C21.2,5.8,22.2,5,23,5h9c0.8,0,1.8,0.8,2,1.5l0.6,2H20.4L20.9,6.5z"/>
</svg>
