<?xml version="1.0" encoding="utf-8"?>
<!-- Generator: Adobe Illustrator 22.0.1, SVG Export Plug-In . SVG Version: 6.00 Build 0)  -->
<svg version="1.1" id="Capa_1" xmlns="http://www.w3.org/2000/svg" xmlns:xlink="http://www.w3.org/1999/xlink" x="0px" y="0px"
	 viewBox="0 0 36.5 36" style="enable-background:new 0 0 36.5 36;" xml:space="preserve">
<path d="M10.3,26.7c0-2.3-1.5-4.3-3.7-4.9V1.4C6.5,0.6,5.9,0,5.1,0C4.4,0,3.7,0.6,3.7,1.4v20.3C1,22.5-0.6,25.3,0.2,28
	c0.5,1.7,1.8,3.1,3.6,3.6v3c0,0.8,0.6,1.4,1.4,1.4c0.8,0,1.4-0.6,1.4-1.4v-3C8.8,31,10.3,28.9,10.3,26.7z M5.1,29
	c-1.3,0-2.3-1-2.3-2.3c0-1.3,1-2.3,2.3-2.3s2.3,1,2.3,2.3S6.4,29,5.1,29L5.1,29z"/>
<path d="M36.5,26.7c0-2.3-1.5-4.3-3.7-4.9V1.4c0-0.8-0.6-1.4-1.4-1.4c-0.8,0-1.4,0.6-1.4,1.4c0,0,0,0,0,0v20.3
	c-2.7,0.8-4.3,3.6-3.6,6.3c0.5,1.7,1.8,3.1,3.6,3.6v3c0,0.8,0.6,1.4,1.4,1.4c0.8,0,1.4-0.6,1.4-1.4c0,0,0,0,0,0v-3
	C34.9,31,36.5,28.9,36.5,26.7z M31.3,29C30,29,29,28,29,26.7s1-2.3,2.3-2.3c1.3,0,2.3,1,2.3,2.3S32.6,29,31.3,29L31.3,29z"/>
<path d="M13.1,9.4c0,2.3,1.5,4.3,3.7,4.9v20.3c0,0.8,0.6,1.4,1.4,1.4c0.8,0,1.4-0.6,1.4-1.4V14.3c2.7-0.8,4.3-3.6,3.6-6.3
	c-0.5-1.7-1.8-3.1-3.6-3.6v-3C19.6,0.6,19,0,18.2,0c-0.8,0-1.4,0.6-1.4,1.4c0,0,0,0,0,0v3C14.6,5,13.1,7.1,13.1,9.4z M18.2,7
	c1.3,0,2.3,1,2.3,2.3s-1,2.3-2.3,2.3s-2.3-1-2.3-2.3S16.9,7,18.2,7L18.2,7z"/>
</svg>
