<?xml version="1.0" encoding="utf-8"?>
<!-- Generator: Adobe Illustrator 22.0.1, SVG Export Plug-In . SVG Version: 6.00 Build 0)  -->
<svg version="1.1" id="Capa_1" xmlns="http://www.w3.org/2000/svg" xmlns:xlink="http://www.w3.org/1999/xlink" x="0px" y="0px"
	 viewBox="0 0 17.2 21.2" style="enable-background:new 0 0 17.2 21.2;" xml:space="preserve">
<path d="M16.4,4.9l-4.1-4.1C11.9,0.3,11.2,0,10.5,0H3.6C1.6,0,0,1.6,0,3.6l0,0v14c0,2,1.6,3.6,3.6,3.6h0h10c2,0,3.6-1.6,3.6-3.6
	c0,0,0,0,0,0V6.7C17.2,6,16.9,5.3,16.4,4.9z M16,17.6c0,1.3-1.1,2.4-2.4,2.4h-10c-1.3,0-2.4-1.1-2.4-2.4v-14c0-1.3,1.1-2.4,2.4-2.4
	l0,0h6.9c0.4,0,0.7,0.1,1,0.4l4.1,4.1C15.9,6,16,6.3,16,6.7V17.6z M5.2,9.8v1.7H4.3c-0.3,0-0.6,0.3-0.6,0.6c0,0.3,0.3,0.6,0.6,0.6
	c0,0,0,0,0,0h0.8v0.5c0,0.3,0.3,0.6,0.6,0.6c0.3,0,0.6-0.3,0.6-0.6v-0.5c1.1,0,2-1,2-2.1c0-1.1-0.9-2-2-2V6.9h0.9
	c0.3,0,0.6-0.3,0.6-0.6c0-0.3-0.3-0.6-0.6-0.6c0,0,0,0,0,0H6.4V5.2c0-0.3-0.3-0.6-0.6-0.6c-0.3,0-0.6,0.3-0.6,0.6v0.5
	c-1.1,0-2,1-2,2.1C3.2,8.9,4.1,9.7,5.2,9.8L5.2,9.8z M6.4,9.8c0.5,0,0.8,0.4,0.8,0.8c0,0.5-0.4,0.8-0.8,0.8V9.8z M5.2,6.9v1.7
	c-0.5,0-0.8-0.4-0.8-0.8S4.7,6.9,5.2,6.9L5.2,6.9z M9.9,11c0-0.3,0.3-0.6,0.6-0.6h0h2.3c0.3,0,0.6,0.3,0.6,0.6
	c0,0.3-0.3,0.6-0.6,0.6c0,0,0,0,0,0h-2.3C10.2,11.6,9.9,11.3,9.9,11L9.9,11z M9.9,7.4c0-0.3,0.3-0.6,0.6-0.6h0h2.3
	c0.3,0,0.6,0.3,0.6,0.6c0,0.3-0.3,0.6-0.6,0.6c0,0,0,0,0,0h-2.3C10.2,8,9.9,7.7,9.9,7.4L9.9,7.4z M13.8,16c0,0.3-0.3,0.6-0.6,0.6
	l0,0H4c-0.3,0-0.6-0.3-0.6-0.6s0.3-0.6,0.6-0.6l0,0h9.2C13.5,15.4,13.8,15.7,13.8,16C13.8,16,13.8,16,13.8,16L13.8,16z"/>
</svg>
