<?xml version="1.0" encoding="utf-8"?>
<!-- Generator: Adobe Illustrator 22.0.1, SVG Export Plug-In . SVG Version: 6.00 Build 0)  -->
<svg version="1.1" id="Capa_1" xmlns="http://www.w3.org/2000/svg" xmlns:xlink="http://www.w3.org/1999/xlink" x="0px" y="0px"
	 viewBox="0 0 20 14" style="enable-background:new 0 0 20 14;" xml:space="preserve">
<path d="M19,14H1c-0.6,0-1-0.4-1-1s0.4-1,1-1h18c0.6,0,1,0.4,1,1S19.6,14,19,14z M19,8H1C0.4,8,0,7.6,0,7s0.4-1,1-1h18
	c0.6,0,1,0.4,1,1S19.6,8,19,8z M19,2H1C0.4,2,0,1.6,0,1s0.4-1,1-1h18c0.6,0,1,0.4,1,1S19.6,2,19,2z"/>
</svg>
